<svg xmlns="http://www.w3.org/2000/svg" width="1200" height="600" viewBox="0 0 1200 600" fill="none">
<rect width="100%" height="100%" fill="#07090A"/>
<circle cx="1" cy="1" r="0.6" fill="#F5F7F8" opacity="0.035"/><circle cx="72" cy="114" r="1.05" fill="#F5F7F8" opacity="0.045"/><circle cx="143" cy="227" r="1.5" fill="#F5F7F8" opacity="0.055"/><circle cx="214" cy="340" r="0.6" fill="#F5F7F8" opacity="0.065"/><circle cx="285" cy="453" r="1.05" fill="#F5F7F8" opacity="0.035"/><circle cx="356" cy="566" r="1.5" fill="#F5F7F8" opacity="0.045"/><circle cx="427" cy="81" r="0.6" fill="#F5F7F8" opacity="0.055"/><circle cx="498" cy="194" r="1.05" fill="#F5F7F8" opacity="0.065"/><circle cx="569" cy="307" r="1.5" fill="#F5F7F8" opacity="0.035"/><circle cx="640" cy="420" r="0.6" fill="#F5F7F8" opacity="0.045"/><circle cx="711" cy="533" r="1.05" fill="#F5F7F8" opacity="0.055"/><circle cx="782" cy="48" r="1.5" fill="#F5F7F8" opacity="0.065"/><circle cx="853" cy="161" r="0.6" fill="#F5F7F8" opacity="0.035"/><circle cx="924" cy="274" r="1.05" fill="#F5F7F8" opacity="0.045"/><circle cx="995" cy="387" r="1.5" fill="#F5F7F8" opacity="0.055"/><circle cx="1066" cy="500" r="0.6" fill="#F5F7F8" opacity="0.065"/><circle cx="1137" cy="15" r="1.05" fill="#F5F7F8" opacity="0.035"/><circle cx="10" cy="128" r="1.5" fill="#F5F7F8" opacity="0.045"/><circle cx="81" cy="241" r="0.6" fill="#F5F7F8" opacity="0.055"/><circle cx="152" cy="354" r="1.05" fill="#F5F7F8" opacity="0.065"/><circle cx="223" cy="467" r="1.5" fill="#F5F7F8" opacity="0.035"/><circle cx="294" cy="580" r="0.6" fill="#F5F7F8" opacity="0.045"/><circle cx="365" cy="95" r="1.05" fill="#F5F7F8" opacity="0.055"/><circle cx="436" cy="208" r="1.5" fill="#F5F7F8" opacity="0.065"/><circle cx="507" cy="321" r="0.6" fill="#F5F7F8" opacity="0.035"/><circle cx="578" cy="434" r="1.05" fill="#F5F7F8" opacity="0.045"/><circle cx="649" cy="547" r="1.5" fill="#F5F7F8" opacity="0.055"/><circle cx="720" cy="62" r="0.6" fill="#F5F7F8" opacity="0.065"/><circle cx="791" cy="175" r="1.05" fill="#F5F7F8" opacity="0.035"/><circle cx="862" cy="288" r="1.5" fill="#F5F7F8" opacity="0.045"/><circle cx="933" cy="401" r="0.6" fill="#F5F7F8" opacity="0.055"/><circle cx="1004" cy="514" r="1.05" fill="#F5F7F8" opacity="0.065"/><circle cx="1075" cy="29" r="1.5" fill="#F5F7F8" opacity="0.035"/><circle cx="1146" cy="142" r="0.6" fill="#F5F7F8" opacity="0.045"/><circle cx="19" cy="255" r="1.05" fill="#F5F7F8" opacity="0.055"/><circle cx="90" cy="368" r="1.5" fill="#F5F7F8" opacity="0.065"/><circle cx="161" cy="481" r="0.6" fill="#F5F7F8" opacity="0.035"/><circle cx="232" cy="594" r="1.05" fill="#F5F7F8" opacity="0.045"/><circle cx="303" cy="109" r="1.5" fill="#F5F7F8" opacity="0.055"/><circle cx="374" cy="222" r="0.6" fill="#F5F7F8" opacity="0.065"/><circle cx="445" cy="335" r="1.05" fill="#F5F7F8" opacity="0.035"/><circle cx="516" cy="448" r="1.5" fill="#F5F7F8" opacity="0.045"/><circle cx="587" cy="561" r="0.6" fill="#F5F7F8" opacity="0.055"/><circle cx="658" cy="76" r="1.05" fill="#F5F7F8" opacity="0.065"/><circle cx="729" cy="189" r="1.5" fill="#F5F7F8" opacity="0.035"/><circle cx="800" cy="302" r="0.6" fill="#F5F7F8" opacity="0.045"/><circle cx="871" cy="415" r="1.05" fill="#F5F7F8" opacity="0.055"/><circle cx="942" cy="528" r="1.5" fill="#F5F7F8" opacity="0.065"/><circle cx="1013" cy="43" r="0.6" fill="#F5F7F8" opacity="0.035"/><circle cx="1084" cy="156" r="1.05" fill="#F5F7F8" opacity="0.045"/><circle cx="1155" cy="269" r="1.5" fill="#F5F7F8" opacity="0.055"/><circle cx="28" cy="382" r="0.6" fill="#F5F7F8" opacity="0.065"/><circle cx="99" cy="495" r="1.05" fill="#F5F7F8" opacity="0.035"/><circle cx="170" cy="10" r="1.5" fill="#F5F7F8" opacity="0.045"/><circle cx="241" cy="123" r="0.6" fill="#F5F7F8" opacity="0.055"/><circle cx="312" cy="236" r="1.05" fill="#F5F7F8" opacity="0.065"/><circle cx="383" cy="349" r="1.5" fill="#F5F7F8" opacity="0.035"/><circle cx="454" cy="462" r="0.6" fill="#F5F7F8" opacity="0.045"/><circle cx="525" cy="575" r="1.05" fill="#F5F7F8" opacity="0.055"/><circle cx="596" cy="90" r="1.5" fill="#F5F7F8" opacity="0.065"/><circle cx="667" cy="203" r="0.6" fill="#F5F7F8" opacity="0.035"/><circle cx="738" cy="316" r="1.05" fill="#F5F7F8" opacity="0.045"/><circle cx="809" cy="429" r="1.5" fill="#F5F7F8" opacity="0.055"/><circle cx="880" cy="542" r="0.6" fill="#F5F7F8" opacity="0.065"/><circle cx="951" cy="57" r="1.05" fill="#F5F7F8" opacity="0.035"/><circle cx="1022" cy="170" r="1.5" fill="#F5F7F8" opacity="0.045"/><circle cx="1093" cy="283" r="0.6" fill="#F5F7F8" opacity="0.055"/><circle cx="1164" cy="396" r="1.05" fill="#F5F7F8" opacity="0.065"/><circle cx="37" cy="509" r="1.5" fill="#F5F7F8" opacity="0.035"/><circle cx="108" cy="24" r="0.6" fill="#F5F7F8" opacity="0.045"/><circle cx="179" cy="137" r="1.05" fill="#F5F7F8" opacity="0.055"/><circle cx="250" cy="250" r="1.5" fill="#F5F7F8" opacity="0.065"/><circle cx="321" cy="363" r="0.6" fill="#F5F7F8" opacity="0.035"/><circle cx="392" cy="476" r="1.05" fill="#F5F7F8" opacity="0.045"/><circle cx="463" cy="589" r="1.5" fill="#F5F7F8" opacity="0.055"/><circle cx="534" cy="104" r="0.6" fill="#F5F7F8" opacity="0.065"/><circle cx="605" cy="217" r="1.05" fill="#F5F7F8" opacity="0.035"/><circle cx="676" cy="330" r="1.5" fill="#F5F7F8" opacity="0.045"/><circle cx="747" cy="443" r="0.6" fill="#F5F7F8" opacity="0.055"/><circle cx="818" cy="556" r="1.05" fill="#F5F7F8" opacity="0.065"/><circle cx="889" cy="71" r="1.5" fill="#F5F7F8" opacity="0.035"/><circle cx="960" cy="184" r="0.6" fill="#F5F7F8" opacity="0.045"/><circle cx="1031" cy="297" r="1.05" fill="#F5F7F8" opacity="0.055"/><circle cx="1102" cy="410" r="1.5" fill="#F5F7F8" opacity="0.065"/><circle cx="1173" cy="523" r="0.6" fill="#F5F7F8" opacity="0.035"/><circle cx="46" cy="38" r="1.05" fill="#F5F7F8" opacity="0.045"/><circle cx="117" cy="151" r="1.5" fill="#F5F7F8" opacity="0.055"/><circle cx="188" cy="264" r="0.6" fill="#F5F7F8" opacity="0.065"/><circle cx="259" cy="377" r="1.05" fill="#F5F7F8" opacity="0.035"/><circle cx="330" cy="490" r="1.5" fill="#F5F7F8" opacity="0.045"/><circle cx="401" cy="5" r="0.6" fill="#F5F7F8" opacity="0.055"/><circle cx="472" cy="118" r="1.05" fill="#F5F7F8" opacity="0.065"/><circle cx="543" cy="231" r="1.5" fill="#F5F7F8" opacity="0.035"/><circle cx="614" cy="344" r="0.6" fill="#F5F7F8" opacity="0.045"/><circle cx="685" cy="457" r="1.05" fill="#F5F7F8" opacity="0.055"/><circle cx="756" cy="570" r="1.5" fill="#F5F7F8" opacity="0.065"/><circle cx="827" cy="85" r="0.6" fill="#F5F7F8" opacity="0.035"/><circle cx="898" cy="198" r="1.05" fill="#F5F7F8" opacity="0.045"/><circle cx="969" cy="311" r="1.5" fill="#F5F7F8" opacity="0.055"/><circle cx="1040" cy="424" r="0.6" fill="#F5F7F8" opacity="0.065"/><circle cx="1111" cy="537" r="1.05" fill="#F5F7F8" opacity="0.035"/><circle cx="1182" cy="52" r="1.5" fill="#F5F7F8" opacity="0.045"/><circle cx="55" cy="165" r="0.6" fill="#F5F7F8" opacity="0.055"/><circle cx="126" cy="278" r="1.05" fill="#F5F7F8" opacity="0.065"/><circle cx="197" cy="391" r="1.5" fill="#F5F7F8" opacity="0.035"/><circle cx="268" cy="504" r="0.6" fill="#F5F7F8" opacity="0.045"/><circle cx="339" cy="19" r="1.05" fill="#F5F7F8" opacity="0.055"/><circle cx="410" cy="132" r="1.5" fill="#F5F7F8" opacity="0.065"/><circle cx="481" cy="245" r="0.6" fill="#F5F7F8" opacity="0.035"/><circle cx="552" cy="358" r="1.05" fill="#F5F7F8" opacity="0.045"/><circle cx="623" cy="471" r="1.5" fill="#F5F7F8" opacity="0.055"/><circle cx="694" cy="584" r="0.6" fill="#F5F7F8" opacity="0.065"/><circle cx="765" cy="99" r="1.05" fill="#F5F7F8" opacity="0.035"/><circle cx="836" cy="212" r="1.5" fill="#F5F7F8" opacity="0.045"/><circle cx="907" cy="325" r="0.6" fill="#F5F7F8" opacity="0.055"/><circle cx="978" cy="438" r="1.05" fill="#F5F7F8" opacity="0.065"/><circle cx="1049" cy="551" r="1.5" fill="#F5F7F8" opacity="0.035"/><circle cx="1120" cy="66" r="0.6" fill="#F5F7F8" opacity="0.045"/><circle cx="1191" cy="179" r="1.05" fill="#F5F7F8" opacity="0.055"/><circle cx="64" cy="292" r="1.5" fill="#F5F7F8" opacity="0.065"/><circle cx="135" cy="405" r="0.6" fill="#F5F7F8" opacity="0.035"/><circle cx="206" cy="518" r="1.05" fill="#F5F7F8" opacity="0.045"/><circle cx="277" cy="33" r="1.5" fill="#F5F7F8" opacity="0.055"/><circle cx="348" cy="146" r="0.6" fill="#F5F7F8" opacity="0.065"/><circle cx="419" cy="259" r="1.05" fill="#F5F7F8" opacity="0.035"/><circle cx="490" cy="372" r="1.5" fill="#F5F7F8" opacity="0.045"/><circle cx="561" cy="485" r="0.6" fill="#F5F7F8" opacity="0.055"/><circle cx="632" cy="598" r="1.05" fill="#F5F7F8" opacity="0.065"/><circle cx="703" cy="113" r="1.5" fill="#F5F7F8" opacity="0.035"/><circle cx="774" cy="226" r="0.6" fill="#F5F7F8" opacity="0.045"/><circle cx="845" cy="339" r="1.05" fill="#F5F7F8" opacity="0.055"/><circle cx="916" cy="452" r="1.5" fill="#F5F7F8" opacity="0.065"/><circle cx="987" cy="565" r="0.6" fill="#F5F7F8" opacity="0.035"/><circle cx="1058" cy="80" r="1.05" fill="#F5F7F8" opacity="0.045"/><circle cx="1129" cy="193" r="1.5" fill="#F5F7F8" opacity="0.055"/><circle cx="2" cy="306" r="0.6" fill="#F5F7F8" opacity="0.065"/><circle cx="73" cy="419" r="1.05" fill="#F5F7F8" opacity="0.035"/><circle cx="144" cy="532" r="1.5" fill="#F5F7F8" opacity="0.045"/><circle cx="215" cy="47" r="0.6" fill="#F5F7F8" opacity="0.055"/><circle cx="286" cy="160" r="1.05" fill="#F5F7F8" opacity="0.065"/><circle cx="357" cy="273" r="1.5" fill="#F5F7F8" opacity="0.035"/><circle cx="428" cy="386" r="0.6" fill="#F5F7F8" opacity="0.045"/><circle cx="499" cy="499" r="1.05" fill="#F5F7F8" opacity="0.055"/><circle cx="570" cy="14" r="1.5" fill="#F5F7F8" opacity="0.065"/><circle cx="641" cy="127" r="0.6" fill="#F5F7F8" opacity="0.035"/><circle cx="712" cy="240" r="1.05" fill="#F5F7F8" opacity="0.045"/><circle cx="783" cy="353" r="1.5" fill="#F5F7F8" opacity="0.055"/><circle cx="854" cy="466" r="0.6" fill="#F5F7F8" opacity="0.065"/><circle cx="925" cy="579" r="1.05" fill="#F5F7F8" opacity="0.035"/><circle cx="996" cy="94" r="1.5" fill="#F5F7F8" opacity="0.045"/><circle cx="1067" cy="207" r="0.6" fill="#F5F7F8" opacity="0.055"/><circle cx="1138" cy="320" r="1.05" fill="#F5F7F8" opacity="0.065"/><circle cx="11" cy="433" r="1.5" fill="#F5F7F8" opacity="0.035"/><circle cx="82" cy="546" r="0.6" fill="#F5F7F8" opacity="0.045"/><circle cx="153" cy="61" r="1.05" fill="#F5F7F8" opacity="0.055"/><circle cx="224" cy="174" r="1.5" fill="#F5F7F8" opacity="0.065"/><circle cx="295" cy="287" r="0.6" fill="#F5F7F8" opacity="0.035"/><circle cx="366" cy="400" r="1.05" fill="#F5F7F8" opacity="0.045"/><circle cx="437" cy="513" r="1.5" fill="#F5F7F8" opacity="0.055"/><circle cx="508" cy="28" r="0.6" fill="#F5F7F8" opacity="0.065"/><circle cx="579" cy="141" r="1.05" fill="#F5F7F8" opacity="0.035"/><circle cx="650" cy="254" r="1.5" fill="#F5F7F8" opacity="0.045"/><circle cx="721" cy="367" r="0.6" fill="#F5F7F8" opacity="0.055"/><circle cx="792" cy="480" r="1.05" fill="#F5F7F8" opacity="0.065"/><circle cx="863" cy="593" r="1.5" fill="#F5F7F8" opacity="0.035"/><circle cx="934" cy="108" r="0.6" fill="#F5F7F8" opacity="0.045"/><circle cx="1005" cy="221" r="1.05" fill="#F5F7F8" opacity="0.055"/><circle cx="1076" cy="334" r="1.5" fill="#F5F7F8" opacity="0.065"/><circle cx="1147" cy="447" r="0.6" fill="#F5F7F8" opacity="0.035"/><circle cx="20" cy="560" r="1.05" fill="#F5F7F8" opacity="0.045"/><circle cx="91" cy="75" r="1.5" fill="#F5F7F8" opacity="0.055"/><circle cx="162" cy="188" r="0.6" fill="#F5F7F8" opacity="0.065"/><circle cx="233" cy="301" r="1.05" fill="#F5F7F8" opacity="0.035"/><circle cx="304" cy="414" r="1.5" fill="#F5F7F8" opacity="0.045"/><circle cx="375" cy="527" r="0.6" fill="#F5F7F8" opacity="0.055"/><circle cx="446" cy="42" r="1.05" fill="#F5F7F8" opacity="0.065"/><circle cx="517" cy="155" r="1.5" fill="#F5F7F8" opacity="0.035"/><circle cx="588" cy="268" r="0.6" fill="#F5F7F8" opacity="0.045"/><circle cx="659" cy="381" r="1.05" fill="#F5F7F8" opacity="0.055"/><circle cx="730" cy="494" r="1.5" fill="#F5F7F8" opacity="0.065"/><circle cx="801" cy="9" r="0.6" fill="#F5F7F8" opacity="0.035"/><circle cx="872" cy="122" r="1.05" fill="#F5F7F8" opacity="0.045"/><circle cx="943" cy="235" r="1.5" fill="#F5F7F8" opacity="0.055"/><circle cx="1014" cy="348" r="0.6" fill="#F5F7F8" opacity="0.065"/><circle cx="1085" cy="461" r="1.05" fill="#F5F7F8" opacity="0.035"/><circle cx="1156" cy="574" r="1.5" fill="#F5F7F8" opacity="0.045"/><circle cx="29" cy="89" r="0.6" fill="#F5F7F8" opacity="0.055"/><circle cx="100" cy="202" r="1.05" fill="#F5F7F8" opacity="0.065"/><circle cx="171" cy="315" r="1.5" fill="#F5F7F8" opacity="0.035"/><circle cx="242" cy="428" r="0.6" fill="#F5F7F8" opacity="0.045"/><circle cx="313" cy="541" r="1.05" fill="#F5F7F8" opacity="0.055"/><circle cx="384" cy="56" r="1.5" fill="#F5F7F8" opacity="0.065"/><circle cx="455" cy="169" r="0.6" fill="#F5F7F8" opacity="0.035"/><circle cx="526" cy="282" r="1.05" fill="#F5F7F8" opacity="0.045"/><circle cx="597" cy="395" r="1.5" fill="#F5F7F8" opacity="0.055"/><circle cx="668" cy="508" r="0.6" fill="#F5F7F8" opacity="0.065"/><circle cx="739" cy="23" r="1.05" fill="#F5F7F8" opacity="0.035"/><circle cx="810" cy="136" r="1.5" fill="#F5F7F8" opacity="0.045"/><circle cx="881" cy="249" r="0.6" fill="#F5F7F8" opacity="0.055"/><circle cx="952" cy="362" r="1.05" fill="#F5F7F8" opacity="0.065"/><circle cx="1023" cy="475" r="1.5" fill="#F5F7F8" opacity="0.035"/><circle cx="1094" cy="588" r="0.6" fill="#F5F7F8" opacity="0.045"/><circle cx="1165" cy="103" r="1.05" fill="#F5F7F8" opacity="0.055"/><circle cx="38" cy="216" r="1.5" fill="#F5F7F8" opacity="0.065"/><circle cx="109" cy="329" r="0.6" fill="#F5F7F8" opacity="0.035"/><circle cx="180" cy="442" r="1.05" fill="#F5F7F8" opacity="0.045"/><circle cx="251" cy="555" r="1.5" fill="#F5F7F8" opacity="0.055"/><circle cx="322" cy="70" r="0.6" fill="#F5F7F8" opacity="0.065"/><circle cx="393" cy="183" r="1.05" fill="#F5F7F8" opacity="0.035"/><circle cx="464" cy="296" r="1.5" fill="#F5F7F8" opacity="0.045"/><circle cx="535" cy="409" r="0.6" fill="#F5F7F8" opacity="0.055"/><circle cx="606" cy="522" r="1.05" fill="#F5F7F8" opacity="0.065"/><circle cx="677" cy="37" r="1.5" fill="#F5F7F8" opacity="0.035"/><circle cx="748" cy="150" r="0.6" fill="#F5F7F8" opacity="0.045"/><circle cx="819" cy="263" r="1.05" fill="#F5F7F8" opacity="0.055"/><circle cx="890" cy="376" r="1.5" fill="#F5F7F8" opacity="0.065"/><circle cx="961" cy="489" r="0.6" fill="#F5F7F8" opacity="0.035"/><circle cx="1032" cy="4" r="1.05" fill="#F5F7F8" opacity="0.045"/><circle cx="1103" cy="117" r="1.5" fill="#F5F7F8" opacity="0.055"/><circle cx="1174" cy="230" r="0.6" fill="#F5F7F8" opacity="0.065"/><circle cx="47" cy="343" r="1.05" fill="#F5F7F8" opacity="0.035"/><circle cx="118" cy="456" r="1.5" fill="#F5F7F8" opacity="0.045"/><circle cx="189" cy="569" r="0.6" fill="#F5F7F8" opacity="0.055"/><circle cx="260" cy="84" r="1.05" fill="#F5F7F8" opacity="0.065"/><circle cx="331" cy="197" r="1.5" fill="#F5F7F8" opacity="0.035"/><circle cx="402" cy="310" r="0.6" fill="#F5F7F8" opacity="0.045"/><circle cx="473" cy="423" r="1.05" fill="#F5F7F8" opacity="0.055"/><circle cx="544" cy="536" r="1.5" fill="#F5F7F8" opacity="0.065"/><circle cx="615" cy="51" r="0.6" fill="#F5F7F8" opacity="0.035"/><circle cx="686" cy="164" r="1.05" fill="#F5F7F8" opacity="0.045"/><circle cx="757" cy="277" r="1.5" fill="#F5F7F8" opacity="0.055"/><circle cx="828" cy="390" r="0.6" fill="#F5F7F8" opacity="0.065"/><circle cx="899" cy="503" r="1.05" fill="#F5F7F8" opacity="0.035"/><circle cx="970" cy="18" r="1.5" fill="#F5F7F8" opacity="0.045"/><circle cx="1041" cy="131" r="0.6" fill="#F5F7F8" opacity="0.055"/><circle cx="1112" cy="244" r="1.05" fill="#F5F7F8" opacity="0.065"/><circle cx="1183" cy="357" r="1.5" fill="#F5F7F8" opacity="0.035"/><circle cx="56" cy="470" r="0.6" fill="#F5F7F8" opacity="0.045"/><circle cx="127" cy="583" r="1.05" fill="#F5F7F8" opacity="0.055"/><circle cx="198" cy="98" r="1.5" fill="#F5F7F8" opacity="0.065"/><circle cx="269" cy="211" r="0.6" fill="#F5F7F8" opacity="0.035"/><circle cx="340" cy="324" r="1.05" fill="#F5F7F8" opacity="0.045"/><circle cx="411" cy="437" r="1.5" fill="#F5F7F8" opacity="0.055"/><circle cx="482" cy="550" r="0.6" fill="#F5F7F8" opacity="0.065"/><circle cx="553" cy="65" r="1.05" fill="#F5F7F8" opacity="0.035"/><circle cx="624" cy="178" r="1.5" fill="#F5F7F8" opacity="0.045"/><circle cx="695" cy="291" r="0.6" fill="#F5F7F8" opacity="0.055"/><circle cx="766" cy="404" r="1.05" fill="#F5F7F8" opacity="0.065"/><circle cx="837" cy="517" r="1.5" fill="#F5F7F8" opacity="0.035"/><circle cx="908" cy="32" r="0.6" fill="#F5F7F8" opacity="0.045"/><circle cx="979" cy="145" r="1.05" fill="#F5F7F8" opacity="0.055"/><circle cx="1050" cy="258" r="1.5" fill="#F5F7F8" opacity="0.065"/><circle cx="1121" cy="371" r="0.6" fill="#F5F7F8" opacity="0.035"/><circle cx="1192" cy="484" r="1.05" fill="#F5F7F8" opacity="0.045"/><circle cx="65" cy="597" r="1.5" fill="#F5F7F8" opacity="0.055"/><circle cx="136" cy="112" r="0.6" fill="#F5F7F8" opacity="0.065"/><circle cx="207" cy="225" r="1.05" fill="#F5F7F8" opacity="0.035"/><circle cx="278" cy="338" r="1.5" fill="#F5F7F8" opacity="0.045"/><circle cx="349" cy="451" r="0.6" fill="#F5F7F8" opacity="0.055"/><circle cx="420" cy="564" r="1.05" fill="#F5F7F8" opacity="0.065"/><circle cx="491" cy="79" r="1.5" fill="#F5F7F8" opacity="0.035"/><circle cx="562" cy="192" r="0.6" fill="#F5F7F8" opacity="0.045"/><circle cx="633" cy="305" r="1.05" fill="#F5F7F8" opacity="0.055"/><circle cx="704" cy="418" r="1.5" fill="#F5F7F8" opacity="0.065"/><circle cx="775" cy="531" r="0.6" fill="#F5F7F8" opacity="0.035"/><circle cx="846" cy="46" r="1.05" fill="#F5F7F8" opacity="0.045"/><circle cx="917" cy="159" r="1.5" fill="#F5F7F8" opacity="0.055"/><circle cx="988" cy="272" r="0.6" fill="#F5F7F8" opacity="0.065"/><circle cx="1059" cy="385" r="1.05" fill="#F5F7F8" opacity="0.035"/><circle cx="1130" cy="498" r="1.5" fill="#F5F7F8" opacity="0.045"/><circle cx="3" cy="13" r="0.6" fill="#F5F7F8" opacity="0.055"/><circle cx="74" cy="126" r="1.05" fill="#F5F7F8" opacity="0.065"/><circle cx="145" cy="239" r="1.5" fill="#F5F7F8" opacity="0.035"/><circle cx="216" cy="352" r="0.6" fill="#F5F7F8" opacity="0.045"/><circle cx="287" cy="465" r="1.05" fill="#F5F7F8" opacity="0.055"/><circle cx="358" cy="578" r="1.5" fill="#F5F7F8" opacity="0.065"/><circle cx="429" cy="93" r="0.6" fill="#F5F7F8" opacity="0.035"/><circle cx="500" cy="206" r="1.05" fill="#F5F7F8" opacity="0.045"/><circle cx="571" cy="319" r="1.5" fill="#F5F7F8" opacity="0.055"/><circle cx="642" cy="432" r="0.6" fill="#F5F7F8" opacity="0.065"/><circle cx="713" cy="545" r="1.05" fill="#F5F7F8" opacity="0.035"/><circle cx="784" cy="60" r="1.5" fill="#F5F7F8" opacity="0.045"/><circle cx="855" cy="173" r="0.6" fill="#F5F7F8" opacity="0.055"/><circle cx="926" cy="286" r="1.05" fill="#F5F7F8" opacity="0.065"/><circle cx="997" cy="399" r="1.5" fill="#F5F7F8" opacity="0.035"/><circle cx="1068" cy="512" r="0.6" fill="#F5F7F8" opacity="0.045"/><circle cx="1139" cy="27" r="1.05" fill="#F5F7F8" opacity="0.055"/><circle cx="12" cy="140" r="1.5" fill="#F5F7F8" opacity="0.065"/><circle cx="83" cy="253" r="0.6" fill="#F5F7F8" opacity="0.035"/><circle cx="154" cy="366" r="1.05" fill="#F5F7F8" opacity="0.045"/><circle cx="225" cy="479" r="1.5" fill="#F5F7F8" opacity="0.055"/><circle cx="296" cy="592" r="0.6" fill="#F5F7F8" opacity="0.065"/><circle cx="367" cy="107" r="1.05" fill="#F5F7F8" opacity="0.035"/><circle cx="438" cy="220" r="1.5" fill="#F5F7F8" opacity="0.045"/><circle cx="509" cy="333" r="0.6" fill="#F5F7F8" opacity="0.055"/><circle cx="580" cy="446" r="1.05" fill="#F5F7F8" opacity="0.065"/><circle cx="651" cy="559" r="1.5" fill="#F5F7F8" opacity="0.035"/><circle cx="722" cy="74" r="0.6" fill="#F5F7F8" opacity="0.045"/><circle cx="793" cy="187" r="1.05" fill="#F5F7F8" opacity="0.055"/><circle cx="864" cy="300" r="1.5" fill="#F5F7F8" opacity="0.065"/><circle cx="935" cy="413" r="0.6" fill="#F5F7F8" opacity="0.035"/><circle cx="1006" cy="526" r="1.05" fill="#F5F7F8" opacity="0.045"/><circle cx="1077" cy="41" r="1.5" fill="#F5F7F8" opacity="0.055"/><circle cx="1148" cy="154" r="0.6" fill="#F5F7F8" opacity="0.065"/><circle cx="21" cy="267" r="1.05" fill="#F5F7F8" opacity="0.035"/><circle cx="92" cy="380" r="1.5" fill="#F5F7F8" opacity="0.045"/><circle cx="163" cy="493" r="0.6" fill="#F5F7F8" opacity="0.055"/><circle cx="234" cy="8" r="1.05" fill="#F5F7F8" opacity="0.065"/><circle cx="305" cy="121" r="1.5" fill="#F5F7F8" opacity="0.035"/><circle cx="376" cy="234" r="0.6" fill="#F5F7F8" opacity="0.045"/><circle cx="447" cy="347" r="1.05" fill="#F5F7F8" opacity="0.055"/><circle cx="518" cy="460" r="1.5" fill="#F5F7F8" opacity="0.065"/><circle cx="589" cy="573" r="0.6" fill="#F5F7F8" opacity="0.035"/><circle cx="660" cy="88" r="1.05" fill="#F5F7F8" opacity="0.045"/><circle cx="731" cy="201" r="1.5" fill="#F5F7F8" opacity="0.055"/><circle cx="802" cy="314" r="0.6" fill="#F5F7F8" opacity="0.065"/><circle cx="873" cy="427" r="1.05" fill="#F5F7F8" opacity="0.035"/><circle cx="944" cy="540" r="1.5" fill="#F5F7F8" opacity="0.045"/><circle cx="1015" cy="55" r="0.6" fill="#F5F7F8" opacity="0.055"/><circle cx="1086" cy="168" r="1.05" fill="#F5F7F8" opacity="0.065"/><circle cx="1157" cy="281" r="1.5" fill="#F5F7F8" opacity="0.035"/><circle cx="30" cy="394" r="0.6" fill="#F5F7F8" opacity="0.045"/><circle cx="101" cy="507" r="1.05" fill="#F5F7F8" opacity="0.055"/><circle cx="172" cy="22" r="1.5" fill="#F5F7F8" opacity="0.065"/><circle cx="243" cy="135" r="0.6" fill="#F5F7F8" opacity="0.035"/><circle cx="314" cy="248" r="1.05" fill="#F5F7F8" opacity="0.045"/><circle cx="385" cy="361" r="1.5" fill="#F5F7F8" opacity="0.055"/><circle cx="456" cy="474" r="0.6" fill="#F5F7F8" opacity="0.065"/><circle cx="527" cy="587" r="1.05" fill="#F5F7F8" opacity="0.035"/><circle cx="598" cy="102" r="1.5" fill="#F5F7F8" opacity="0.045"/><circle cx="669" cy="215" r="0.6" fill="#F5F7F8" opacity="0.055"/><circle cx="740" cy="328" r="1.05" fill="#F5F7F8" opacity="0.065"/><circle cx="811" cy="441" r="1.5" fill="#F5F7F8" opacity="0.035"/><circle cx="882" cy="554" r="0.6" fill="#F5F7F8" opacity="0.045"/><circle cx="953" cy="69" r="1.05" fill="#F5F7F8" opacity="0.055"/><circle cx="1024" cy="182" r="1.5" fill="#F5F7F8" opacity="0.065"/><circle cx="1095" cy="295" r="0.6" fill="#F5F7F8" opacity="0.035"/><circle cx="1166" cy="408" r="1.05" fill="#F5F7F8" opacity="0.045"/><circle cx="39" cy="521" r="1.5" fill="#F5F7F8" opacity="0.055"/><circle cx="110" cy="36" r="0.6" fill="#F5F7F8" opacity="0.065"/><circle cx="181" cy="149" r="1.05" fill="#F5F7F8" opacity="0.035"/><circle cx="252" cy="262" r="1.5" fill="#F5F7F8" opacity="0.045"/><circle cx="323" cy="375" r="0.6" fill="#F5F7F8" opacity="0.055"/><circle cx="394" cy="488" r="1.05" fill="#F5F7F8" opacity="0.065"/><circle cx="465" cy="3" r="1.5" fill="#F5F7F8" opacity="0.035"/><circle cx="536" cy="116" r="0.6" fill="#F5F7F8" opacity="0.045"/><circle cx="607" cy="229" r="1.05" fill="#F5F7F8" opacity="0.055"/><circle cx="678" cy="342" r="1.5" fill="#F5F7F8" opacity="0.065"/><circle cx="749" cy="455" r="0.6" fill="#F5F7F8" opacity="0.035"/><circle cx="820" cy="568" r="1.05" fill="#F5F7F8" opacity="0.045"/><circle cx="891" cy="83" r="1.5" fill="#F5F7F8" opacity="0.055"/><circle cx="962" cy="196" r="0.6" fill="#F5F7F8" opacity="0.065"/><circle cx="1033" cy="309" r="1.05" fill="#F5F7F8" opacity="0.035"/><circle cx="1104" cy="422" r="1.5" fill="#F5F7F8" opacity="0.045"/><circle cx="1175" cy="535" r="0.6" fill="#F5F7F8" opacity="0.055"/><circle cx="48" cy="50" r="1.05" fill="#F5F7F8" opacity="0.065"/><circle cx="119" cy="163" r="1.5" fill="#F5F7F8" opacity="0.035"/><circle cx="190" cy="276" r="0.6" fill="#F5F7F8" opacity="0.045"/><circle cx="261" cy="389" r="1.05" fill="#F5F7F8" opacity="0.055"/><circle cx="332" cy="502" r="1.5" fill="#F5F7F8" opacity="0.065"/><circle cx="403" cy="17" r="0.6" fill="#F5F7F8" opacity="0.035"/><circle cx="474" cy="130" r="1.05" fill="#F5F7F8" opacity="0.045"/><circle cx="545" cy="243" r="1.5" fill="#F5F7F8" opacity="0.055"/><circle cx="616" cy="356" r="0.6" fill="#F5F7F8" opacity="0.065"/><circle cx="687" cy="469" r="1.05" fill="#F5F7F8" opacity="0.035"/><circle cx="758" cy="582" r="1.5" fill="#F5F7F8" opacity="0.045"/><circle cx="829" cy="97" r="0.6" fill="#F5F7F8" opacity="0.055"/><circle cx="900" cy="210" r="1.05" fill="#F5F7F8" opacity="0.065"/><circle cx="971" cy="323" r="1.5" fill="#F5F7F8" opacity="0.035"/><circle cx="1042" cy="436" r="0.6" fill="#F5F7F8" opacity="0.045"/><circle cx="1113" cy="549" r="1.05" fill="#F5F7F8" opacity="0.055"/><circle cx="1184" cy="64" r="1.5" fill="#F5F7F8" opacity="0.065"/><circle cx="57" cy="177" r="0.6" fill="#F5F7F8" opacity="0.035"/><circle cx="128" cy="290" r="1.05" fill="#F5F7F8" opacity="0.045"/><circle cx="199" cy="403" r="1.5" fill="#F5F7F8" opacity="0.055"/><circle cx="270" cy="516" r="0.6" fill="#F5F7F8" opacity="0.065"/><circle cx="341" cy="31" r="1.05" fill="#F5F7F8" opacity="0.035"/><circle cx="412" cy="144" r="1.5" fill="#F5F7F8" opacity="0.045"/><circle cx="483" cy="257" r="0.6" fill="#F5F7F8" opacity="0.055"/><circle cx="554" cy="370" r="1.05" fill="#F5F7F8" opacity="0.065"/><circle cx="625" cy="483" r="1.5" fill="#F5F7F8" opacity="0.035"/><circle cx="696" cy="596" r="0.6" fill="#F5F7F8" opacity="0.045"/><circle cx="767" cy="111" r="1.05" fill="#F5F7F8" opacity="0.055"/><circle cx="838" cy="224" r="1.5" fill="#F5F7F8" opacity="0.065"/><circle cx="909" cy="337" r="0.6" fill="#F5F7F8" opacity="0.035"/><circle cx="980" cy="450" r="1.05" fill="#F5F7F8" opacity="0.045"/><circle cx="1051" cy="563" r="1.5" fill="#F5F7F8" opacity="0.055"/><circle cx="1122" cy="78" r="0.6" fill="#F5F7F8" opacity="0.065"/><circle cx="1193" cy="191" r="1.05" fill="#F5F7F8" opacity="0.035"/><circle cx="66" cy="304" r="1.5" fill="#F5F7F8" opacity="0.045"/><circle cx="137" cy="417" r="0.6" fill="#F5F7F8" opacity="0.055"/><circle cx="208" cy="530" r="1.05" fill="#F5F7F8" opacity="0.065"/><circle cx="279" cy="45" r="1.5" fill="#F5F7F8" opacity="0.035"/><circle cx="350" cy="158" r="0.6" fill="#F5F7F8" opacity="0.045"/><circle cx="421" cy="271" r="1.05" fill="#F5F7F8" opacity="0.055"/><circle cx="492" cy="384" r="1.5" fill="#F5F7F8" opacity="0.065"/><circle cx="563" cy="497" r="0.6" fill="#F5F7F8" opacity="0.035"/><circle cx="634" cy="12" r="1.05" fill="#F5F7F8" opacity="0.045"/><circle cx="705" cy="125" r="1.5" fill="#F5F7F8" opacity="0.055"/><circle cx="776" cy="238" r="0.6" fill="#F5F7F8" opacity="0.065"/><circle cx="847" cy="351" r="1.05" fill="#F5F7F8" opacity="0.035"/><circle cx="918" cy="464" r="1.5" fill="#F5F7F8" opacity="0.045"/><circle cx="989" cy="577" r="0.6" fill="#F5F7F8" opacity="0.055"/><circle cx="1060" cy="92" r="1.05" fill="#F5F7F8" opacity="0.065"/><circle cx="1131" cy="205" r="1.5" fill="#F5F7F8" opacity="0.035"/><circle cx="4" cy="318" r="0.6" fill="#F5F7F8" opacity="0.045"/><circle cx="75" cy="431" r="1.05" fill="#F5F7F8" opacity="0.055"/><circle cx="146" cy="544" r="1.5" fill="#F5F7F8" opacity="0.065"/><circle cx="217" cy="59" r="0.6" fill="#F5F7F8" opacity="0.035"/><circle cx="288" cy="172" r="1.05" fill="#F5F7F8" opacity="0.045"/><circle cx="359" cy="285" r="1.5" fill="#F5F7F8" opacity="0.055"/><circle cx="430" cy="398" r="0.6" fill="#F5F7F8" opacity="0.065"/><circle cx="501" cy="511" r="1.05" fill="#F5F7F8" opacity="0.035"/><circle cx="572" cy="26" r="1.5" fill="#F5F7F8" opacity="0.045"/><circle cx="643" cy="139" r="0.6" fill="#F5F7F8" opacity="0.055"/><circle cx="714" cy="252" r="1.05" fill="#F5F7F8" opacity="0.065"/><circle cx="785" cy="365" r="1.5" fill="#F5F7F8" opacity="0.035"/><circle cx="856" cy="478" r="0.6" fill="#F5F7F8" opacity="0.045"/><circle cx="927" cy="591" r="1.05" fill="#F5F7F8" opacity="0.055"/><circle cx="998" cy="106" r="1.5" fill="#F5F7F8" opacity="0.065"/><circle cx="1069" cy="219" r="0.6" fill="#F5F7F8" opacity="0.035"/><circle cx="1140" cy="332" r="1.05" fill="#F5F7F8" opacity="0.045"/><circle cx="13" cy="445" r="1.5" fill="#F5F7F8" opacity="0.055"/><circle cx="84" cy="558" r="0.6" fill="#F5F7F8" opacity="0.065"/><circle cx="155" cy="73" r="1.05" fill="#F5F7F8" opacity="0.035"/><circle cx="226" cy="186" r="1.5" fill="#F5F7F8" opacity="0.045"/><circle cx="297" cy="299" r="0.6" fill="#F5F7F8" opacity="0.055"/><circle cx="368" cy="412" r="1.05" fill="#F5F7F8" opacity="0.065"/><circle cx="439" cy="525" r="1.5" fill="#F5F7F8" opacity="0.035"/><circle cx="510" cy="40" r="0.6" fill="#F5F7F8" opacity="0.045"/><circle cx="581" cy="153" r="1.05" fill="#F5F7F8" opacity="0.055"/><circle cx="652" cy="266" r="1.5" fill="#F5F7F8" opacity="0.065"/><circle cx="723" cy="379" r="0.6" fill="#F5F7F8" opacity="0.035"/><circle cx="794" cy="492" r="1.05" fill="#F5F7F8" opacity="0.045"/><circle cx="865" cy="7" r="1.5" fill="#F5F7F8" opacity="0.055"/><circle cx="936" cy="120" r="0.6" fill="#F5F7F8" opacity="0.065"/><circle cx="1007" cy="233" r="1.05" fill="#F5F7F8" opacity="0.035"/><circle cx="1078" cy="346" r="1.5" fill="#F5F7F8" opacity="0.045"/><circle cx="1149" cy="459" r="0.6" fill="#F5F7F8" opacity="0.055"/><circle cx="22" cy="572" r="1.05" fill="#F5F7F8" opacity="0.065"/><circle cx="93" cy="87" r="1.5" fill="#F5F7F8" opacity="0.035"/><circle cx="164" cy="200" r="0.6" fill="#F5F7F8" opacity="0.045"/><circle cx="235" cy="313" r="1.05" fill="#F5F7F8" opacity="0.055"/><circle cx="306" cy="426" r="1.5" fill="#F5F7F8" opacity="0.065"/><circle cx="377" cy="539" r="0.6" fill="#F5F7F8" opacity="0.035"/><circle cx="448" cy="54" r="1.05" fill="#F5F7F8" opacity="0.045"/><circle cx="519" cy="167" r="1.5" fill="#F5F7F8" opacity="0.055"/><circle cx="590" cy="280" r="0.6" fill="#F5F7F8" opacity="0.065"/><circle cx="661" cy="393" r="1.05" fill="#F5F7F8" opacity="0.035"/><circle cx="732" cy="506" r="1.5" fill="#F5F7F8" opacity="0.045"/><circle cx="803" cy="21" r="0.6" fill="#F5F7F8" opacity="0.055"/><circle cx="874" cy="134" r="1.05" fill="#F5F7F8" opacity="0.065"/><circle cx="945" cy="247" r="1.5" fill="#F5F7F8" opacity="0.035"/><circle cx="1016" cy="360" r="0.6" fill="#F5F7F8" opacity="0.045"/><circle cx="1087" cy="473" r="1.05" fill="#F5F7F8" opacity="0.055"/><circle cx="1158" cy="586" r="1.5" fill="#F5F7F8" opacity="0.065"/><circle cx="31" cy="101" r="0.6" fill="#F5F7F8" opacity="0.035"/><circle cx="102" cy="214" r="1.05" fill="#F5F7F8" opacity="0.045"/><circle cx="173" cy="327" r="1.5" fill="#F5F7F8" opacity="0.055"/><circle cx="244" cy="440" r="0.6" fill="#F5F7F8" opacity="0.065"/><circle cx="315" cy="553" r="1.05" fill="#F5F7F8" opacity="0.035"/><circle cx="386" cy="68" r="1.5" fill="#F5F7F8" opacity="0.045"/><circle cx="457" cy="181" r="0.6" fill="#F5F7F8" opacity="0.055"/><circle cx="528" cy="294" r="1.05" fill="#F5F7F8" opacity="0.065"/><circle cx="599" cy="407" r="1.5" fill="#F5F7F8" opacity="0.035"/><circle cx="670" cy="520" r="0.6" fill="#F5F7F8" opacity="0.045"/><circle cx="741" cy="35" r="1.05" fill="#F5F7F8" opacity="0.055"/><circle cx="812" cy="148" r="1.5" fill="#F5F7F8" opacity="0.065"/><circle cx="883" cy="261" r="0.6" fill="#F5F7F8" opacity="0.035"/><circle cx="954" cy="374" r="1.05" fill="#F5F7F8" opacity="0.045"/><circle cx="1025" cy="487" r="1.5" fill="#F5F7F8" opacity="0.055"/><circle cx="1096" cy="2" r="0.6" fill="#F5F7F8" opacity="0.065"/><circle cx="1167" cy="115" r="1.05" fill="#F5F7F8" opacity="0.035"/><circle cx="40" cy="228" r="1.5" fill="#F5F7F8" opacity="0.045"/><circle cx="111" cy="341" r="0.6" fill="#F5F7F8" opacity="0.055"/><circle cx="182" cy="454" r="1.05" fill="#F5F7F8" opacity="0.065"/><circle cx="253" cy="567" r="1.5" fill="#F5F7F8" opacity="0.035"/><circle cx="324" cy="82" r="0.6" fill="#F5F7F8" opacity="0.045"/><circle cx="395" cy="195" r="1.05" fill="#F5F7F8" opacity="0.055"/><circle cx="466" cy="308" r="1.5" fill="#F5F7F8" opacity="0.065"/><circle cx="537" cy="421" r="0.6" fill="#F5F7F8" opacity="0.035"/><circle cx="608" cy="534" r="1.05" fill="#F5F7F8" opacity="0.045"/><circle cx="679" cy="49" r="1.5" fill="#F5F7F8" opacity="0.055"/><circle cx="750" cy="162" r="0.6" fill="#F5F7F8" opacity="0.065"/><circle cx="821" cy="275" r="1.05" fill="#F5F7F8" opacity="0.035"/><circle cx="892" cy="388" r="1.5" fill="#F5F7F8" opacity="0.045"/><circle cx="963" cy="501" r="0.6" fill="#F5F7F8" opacity="0.055"/><circle cx="1034" cy="16" r="1.05" fill="#F5F7F8" opacity="0.065"/><circle cx="1105" cy="129" r="1.5" fill="#F5F7F8" opacity="0.035"/><circle cx="1176" cy="242" r="0.6" fill="#F5F7F8" opacity="0.045"/><circle cx="49" cy="355" r="1.05" fill="#F5F7F8" opacity="0.055"/><circle cx="120" cy="468" r="1.5" fill="#F5F7F8" opacity="0.065"/><circle cx="191" cy="581" r="0.6" fill="#F5F7F8" opacity="0.035"/><circle cx="262" cy="96" r="1.05" fill="#F5F7F8" opacity="0.045"/><circle cx="333" cy="209" r="1.5" fill="#F5F7F8" opacity="0.055"/><circle cx="404" cy="322" r="0.6" fill="#F5F7F8" opacity="0.065"/><circle cx="475" cy="435" r="1.05" fill="#F5F7F8" opacity="0.035"/><circle cx="546" cy="548" r="1.5" fill="#F5F7F8" opacity="0.045"/><circle cx="617" cy="63" r="0.6" fill="#F5F7F8" opacity="0.055"/><circle cx="688" cy="176" r="1.05" fill="#F5F7F8" opacity="0.065"/><circle cx="759" cy="289" r="1.5" fill="#F5F7F8" opacity="0.035"/><circle cx="830" cy="402" r="0.6" fill="#F5F7F8" opacity="0.045"/><circle cx="901" cy="515" r="1.05" fill="#F5F7F8" opacity="0.055"/><circle cx="972" cy="30" r="1.5" fill="#F5F7F8" opacity="0.065"/><circle cx="1043" cy="143" r="0.6" fill="#F5F7F8" opacity="0.035"/><circle cx="1114" cy="256" r="1.05" fill="#F5F7F8" opacity="0.045"/><circle cx="1185" cy="369" r="1.5" fill="#F5F7F8" opacity="0.055"/><circle cx="58" cy="482" r="0.6" fill="#F5F7F8" opacity="0.065"/><circle cx="129" cy="595" r="1.05" fill="#F5F7F8" opacity="0.035"/><circle cx="200" cy="110" r="1.5" fill="#F5F7F8" opacity="0.045"/><circle cx="271" cy="223" r="0.6" fill="#F5F7F8" opacity="0.055"/><circle cx="342" cy="336" r="1.05" fill="#F5F7F8" opacity="0.065"/><circle cx="413" cy="449" r="1.5" fill="#F5F7F8" opacity="0.035"/><circle cx="484" cy="562" r="0.6" fill="#F5F7F8" opacity="0.045"/><circle cx="555" cy="77" r="1.05" fill="#F5F7F8" opacity="0.055"/><circle cx="626" cy="190" r="1.5" fill="#F5F7F8" opacity="0.065"/><circle cx="697" cy="303" r="0.6" fill="#F5F7F8" opacity="0.035"/><circle cx="768" cy="416" r="1.05" fill="#F5F7F8" opacity="0.045"/><circle cx="839" cy="529" r="1.5" fill="#F5F7F8" opacity="0.055"/><circle cx="910" cy="44" r="0.6" fill="#F5F7F8" opacity="0.065"/>
</svg>
