<svg xmlns="http://www.w3.org/2000/svg" width="880" height="340" viewBox="0 0 880 340" fill="none">
<rect width="100%" height="100%" fill="#07090A"/>
<g stroke="#99A2AA" stroke-width="1" opacity="0.05"><path d="M0 0V340"/><path d="M44 0V340"/><path d="M88 0V340"/><path d="M132 0V340"/><path d="M176 0V340"/><path d="M220 0V340"/><path d="M264 0V340"/><path d="M308 0V340"/><path d="M352 0V340"/><path d="M396 0V340"/><path d="M440 0V340"/><path d="M484 0V340"/><path d="M528 0V340"/><path d="M572 0V340"/><path d="M616 0V340"/><path d="M660 0V340"/><path d="M704 0V340"/><path d="M748 0V340"/><path d="M792 0V340"/><path d="M836 0V340"/><path d="M880 0V340"/><path d="M0 0H880"/><path d="M0 44H880"/><path d="M0 88H880"/><path d="M0 132H880"/><path d="M0 176H880"/><path d="M0 220H880"/><path d="M0 264H880"/><path d="M0 308H880"/></g><g stroke="#F5F7F8" stroke-width="2" fill="none" opacity=".7"><rect x="80" y="80" width="180" height="80"/><rect x="350" y="80" width="180" height="80"/><rect x="620" y="80" width="180" height="80"/><path d="M260 120H350M530 120H620"/><path d="M710 160V260H440V160"/></g><g fill="#00D8FF"><circle cx="305" cy="120" r="6"/><circle cx="575" cy="120" r="6"/><circle cx="440" cy="260" r="6"/></g>
</svg>
