<svg xmlns="http://www.w3.org/2000/svg" width="1200" height="600" viewBox="0 0 1200 600" fill="none">
<rect width="100%" height="100%" fill="#07090A"/>
<polygon points="360.0,190.0 490.0,60.0 710.0,60.0 840.0,190.0 840.0,410.0 710.0,540.0 490.0,540.0 360.0,410.0" fill="none" stroke="#F5F7F8" stroke-width="1.5" opacity="0.12"/><polygon points="391.20000000000005,204.3 504.3,91.20000000000002 695.7,91.20000000000002 808.8,204.3 808.8,395.7 695.7,508.79999999999995 504.3,508.79999999999995 391.20000000000005,395.7" fill="none" stroke="#F5F7F8" stroke-width="1.5" opacity="0.2"/><polygon points="422.4,218.6 518.6,122.39999999999998 681.4,122.39999999999998 777.6,218.6 777.6,381.4 681.4,477.6 518.6,477.6 422.4,381.4" fill="none" stroke="#F5F7F8" stroke-width="1.5" opacity="0.28"/><polygon points="453.6,232.9 532.9,153.60000000000002 667.1,153.60000000000002 746.4,232.9 746.4,367.1 667.1,446.4 532.9,446.4 453.6,367.1" fill="none" stroke="#F5F7F8" stroke-width="1.5" opacity="0.36"/><polygon points="484.8,247.2 547.2,184.8 652.8,184.8 715.2,247.2 715.2,352.8 652.8,415.2 547.2,415.2 484.8,352.8" fill="none" stroke="#F5F7F8" stroke-width="1.5" opacity="0.44"/><polygon points="516.0,261.5 561.5,216.0 638.5,216.0 684.0,261.5 684.0,338.5 638.5,384.0 561.5,384.0 516.0,338.5" fill="none" stroke="#00D8FF" stroke-width="2" opacity="0.52"/><polygon points="547.2,275.8 575.8,247.20000000000002 624.2,247.20000000000002 652.8,275.8 652.8,324.2 624.2,352.79999999999995 575.8,352.79999999999995 547.2,324.2" fill="none" stroke="#00D8FF" stroke-width="2" opacity="0.6"/><circle cx="600" cy="300" r="20" stroke="#00D8FF" stroke-width="3"/><rect x="594.5" y="294.5" width="11.0" height="11.0" fill="#00D8FF" opacity="1.0" transform="rotate(45 600 300)"/>
</svg>
